<?xml version="1.0" standalone="no"?><!DOCTYPE svg PUBLIC "-//W3C//DTD SVG 1.1//EN" "http://www.w3.org/Graphics/SVG/1.1/DTD/svg11.dtd"><svg t="1680540227250" class="icon" viewBox="0 0 1024 1024" version="1.1" xmlns="http://www.w3.org/2000/svg" p-id="2772" xmlns:xlink="http://www.w3.org/1999/xlink" width="200" height="200"><path d="M512 0c42.375 0 76.75 34.375 76.75 76.75v870.375c0 42.375-34.375 76.75-76.75 76.75s-76.75-34.375-76.75-76.75V76.75c0-20.375 8.125-39.875 22.5-54.25s33.875-22.5 54.25-22.5zM307.25 153.625c42.375 0 76.75 34.375 76.75 76.75v563.25c0 42.375-34.375 76.75-76.75 76.75s-76.75-34.375-76.75-76.75V230.375c-0.125-42.375 34.25-76.75 76.75-76.75z m409.625 0c42.375 0 76.75 34.375 76.75 76.75v563.25c0 42.375-34.375 76.75-76.75 76.75s-76.75-34.375-76.75-76.75V230.375c-0.125-42.375 34.25-76.75 76.75-76.75zM102.375 256c20.375 0 39.875 8.125 54.25 22.5s22.5 33.875 22.5 54.25V691.25c0 42.375-34.375 76.75-76.75 76.75S25.625 733.625 25.625 691.25V332.75c0-20.375 8.125-39.875 22.5-54.25s33.875-22.5 54.25-22.5z m819.25 0c42.375 0 76.75 34.375 76.75 76.75V691.25c0 42.375-34.375 76.75-76.75 76.75s-76.75-34.375-76.75-76.75V332.75c0-20.375 8.125-39.875 22.5-54.25s33.875-22.5 54.25-22.5z m0 0" p-id="2773"></path></svg>